rec1_004.mot
nRows=20
nColumns=19

name rec1_004.mot
datacolumns 19
datarows 20
range 5.0020390209 5.0400395945
endheader
time	ground_force_vx	ground_force_vy	ground_force_vz	ground_force_px	ground_force_py	ground_force_pz	1_ground_force_vx	1_ground_force_vy	1_ground_force_vz	1_ground_force_px	1_ground_force_py	1_ground_force_pz	ground_torque_x	ground_torque_y	ground_torque_z	1_ground_torque_x	1_ground_torque_y	1_ground_torque_z	
        5.0020390209	       -4.5180328367	      494.4034860471	      -35.5644878818	       -0.7000000000	       -0.0180000000	        0.5600000000	       -0.0179954113	        4.0933457153	        0.4003725611	       -0.7000000000	       -0.0180000000	       -0.5600000000	      232.8929736047	       18.5852026177	      502.0365001992	       -0.6484558639	        0.6022094280	        1.5571204002	
        5.0040392363	       -3.8107078011	      493.6383353271	      -35.6633079468	       -0.7000000000	       -0.0180000000	        0.5600000000	       -0.0062335512	        4.0882262764	        0.4154496239	       -0.7000000000	       -0.0180000000	       -0.5600000000	      232.5273043930	       18.5264091406	      500.3032065849	       -0.6602598383	        0.5933054846	        1.5427987121	
        5.0060390119	       -3.1054824755	      493.1254259711	      -35.7773734275	       -0.7000000000	       -0.0180000000	        0.5600000000	        0.0038416505	        4.0762237772	        0.4343890355	       -0.7000000000	       -0.0180000000	       -0.5600000000	      232.2824827109	       18.4705123812	      498.8305952272	       -0.6699507535	        0.5786076104	        1.5211581716	
        5.0080393074	       -2.4043528715	      492.8713461632	      -35.9020506067	       -0.7000000000	       -0.0180000000	        0.5600000000	        0.0128747996	        4.0590008372	        0.4557278467	       -0.7000000000	       -0.0180000000	       -0.5600000000	      232.1619196045	       18.4144543830	      497.6231742587	       -0.6779431944	        0.5598849597	        1.4935543106	
        5.0100390428	       -1.7097090477	      492.8801715159	      -36.0334417139	       -0.7000000000	       -0.0180000000	        0.5600000000	        0.0221556645	        4.0392873451	        0.4773905796	       -0.7000000000	       -0.0180000000	       -0.5600000000	      232.1678727643	       18.3554287138	      496.6824750986	       -0.6847990978	        0.5398389981	        1.4625045528	
        5.0120394582	       -1.0238140290	      493.1535195611	      -36.1683802455	       -0.7000000000	       -0.0180000000	        0.5600000000	        0.0330513031	        4.0207342785	        0.4970361796	       -0.7000000000	       -0.0180000000	       -0.5600000000	      232.3014466350	       18.2907924240	      496.0073387665	       -0.6912225177	        0.5215713171	        1.4317220259	
        5.0140390338	       -0.3482498362	      493.6909015211	      -36.3043315039	       -0.7000000000	       -0.0180000000	        0.5600000000	        0.0463696740	        4.0070872743	        0.5124787091	       -0.7000000000	       -0.0180000000	       -0.5600000000	      232.5626723462	       18.2181841649	      495.5945290877	       -0.6979065014	        0.5079798346	        1.4050315992	
        5.0160394492	        0.3163735802	      494.4901013231	      -36.4392242817	       -0.7000000000	       -0.0180000000	        0.5600000000	        0.0620090246	        4.0012857111	        0.5221006076	       -0.7000000000	       -0.0180000000	       -0.5600000000	      232.9506315502	       18.1358379102	      495.4392648547	       -0.7053690005	        0.5011936334	        1.3850541197	
        5.0180391047	        0.9702941198	      495.5472648342	      -36.5712135345	       -0.7000000000	       -0.0180000000	        0.5600000000	        0.0791283695	        4.0051102897	        0.5251723471	       -0.7000000000	       -0.0180000000	       -0.5600000000	      233.4635002130	       18.0426213468	      495.5353080668	       -0.7139012217	        0.5021647746	        1.3727684893	
        5.0200393602	        1.6141502314	      496.8567490852	      -36.6984857129	       -0.7000000000	       -0.0180000000	        0.5600000000	        0.0967692859	        4.0195011978	        0.5219406838	       -0.7000000000	       -0.0180000000	       -0.5600000000	      234.0985172566	       17.9375484896	      495.8746382315	       -0.7236085864	        0.5106188540	        1.3683114601	
        5.0220391756	        2.2484646300	      498.4110001749	      -36.8192354757	       -0.7000000000	       -0.0180000000	        0.5600000000	        0.1145471350	        4.0452100873	        0.5135493294	       -0.7000000000	       -0.0180000000	       -0.5600000000	      234.8519926401	       17.8193709391	      496.4471165114	       -0.7345266617	        0.5252632305	        1.3723735951	
        5.0240394311	        2.8733336494	      500.2006000694	      -36.9317460457	       -0.7000000000	       -0.0180000000	        0.5600000000	        0.1329297223	        4.0831920789	        0.5018707801	       -0.7000000000	       -0.0180000000	       -0.5600000000	      235.7193756978	       17.6864332804	      497.2405230297	       -0.7467315223	        0.5440600295	        1.3870199782	
        5.0260391666	        3.4884807635	      502.2144970219	      -37.0344463092	       -0.7000000000	       -0.0180000000	        0.5600000000	        0.1528804382	        4.1342998745	        0.4892086544	       -0.7000000000	       -0.0180000000	       -0.5600000000	      236.6953560365	       17.5370803646	      498.2410052621	       -0.7602923634	        0.5645488286	        1.4152064696	
        5.0280394621	        4.0936212668	      504.4403385996	      -37.1259131181	       -0.7000000000	       -0.0180000000	        0.5600000000	        0.1751007023	        4.1985166222	        0.4779758068	       -0.7000000000	       -0.0180000000	       -0.5600000000	      237.7739888375	       17.3705847679	      499.4336793375	       -0.7751160420	        0.5841072489	        1.4594094155	
        5.0300392775	        4.6889296624	      506.8647772243	      -37.2048518340	       -0.7000000000	       -0.0180000000	        0.5600000000	        0.1993624587	        4.2743882918	        0.4704072287	       -0.7000000000	       -0.0180000000	       -0.5600000000	      238.9488143579	       17.1871961780	      500.8031301926	       -0.7908497808	        0.6001391520	        1.5204275904	
        5.0320394531	        5.2753555364	      509.4737045038	      -37.2701487417	       -0.7000000000	       -0.0180000000	        0.5600000000	        0.2243355650	        4.3590670653	        0.4682112467	       -0.7000000000	       -0.0180000000	       -0.5600000000	      240.2129595435	       16.9872125770	      502.3336281352	       -0.8068796924	        0.6103945483	        1.5971369914	
        5.0340391885	        5.8546089957	      512.2524050785	      -37.3210233517	       -0.7000000000	       -0.0180000000	        0.5600000000	        0.2480013446	        4.4489464164	        0.4722362457	       -0.7000000000	       -0.0180000000	       -0.5600000000	      241.5592226942	       16.7706044014	      504.0089884271	       -0.8224208306	        0.6133986844	        1.6872877038	
        5.0360395238	        6.4288371178	      515.1856072730	      -37.3572398893	       -0.7000000000	       -0.0180000000	        0.5600000000	        0.2683847263	        4.5405304799	        0.4822742589	       -0.7000000000	       -0.0180000000	       -0.5600000000	      242.9801539294	       16.5374937638	      505.8123357307	       -0.8366778864	        0.6088356709	        1.7886283925	
        5.0380392592	        7.0002213304	      518.2575818949	      -37.3793864868	       -0.7000000000	       -0.0180000000	        0.5600000000	        0.2841868013	        4.6309751824	        0.4970345317	       -0.7000000000	       -0.0180000000	       -0.5600000000	      244.4682073734	       16.2889792771	      507.7262683629	       -0.8489701513	        0.5977628044	        1.8993303510	
        5.0400395945	        7.5707025087	      521.4525154809	      -37.3890531249	       -0.7000000000	       -0.0180000000	        0.5600000000	        0.2950235477	        4.7178574580	        0.5143821086	       -0.7000000000	       -0.0180000000	       -0.5600000000	      246.0159582448	       16.0276759443	      509.7335944843	       -0.8587153778	        0.5824439268	        2.0172587018	
